<?xml version="1.0" standalone="no"?>
<!DOCTYPE svg PUBLIC "-//W3C//DTD SVG 20010904//EN"
 "http://www.w3.org/TR/2001/REC-SVG-20010904/DTD/svg10.dtd">
<svg version="1.0" xmlns="http://www.w3.org/2000/svg"
 width="500.000000pt" height="500.000000pt" viewBox="0 0 500.000000 500.000000"
 preserveAspectRatio="xMidYMid meet">

<g transform="translate(0.000000,500.000000) scale(0.100000,-0.100000)"
fill="#000000" stroke="none">
<path d="M0 2500 l0 -2500 2500 0 2500 0 0 2500 0 2500 -2500 0 -2500 0 0
-2500z m3439 2 c511 -887 933 -1618 937 -1624 4 -7 -8 -3 -27 8 -19 11 -111
64 -206 119 l-172 99 -732 1270 c-403 699 -734 1273 -735 1275 -2 1 -69 -6
-151 -17 -81 -11 -149 -19 -151 -17 -2 2 62 119 144 260 81 141 151 252 155
248 4 -4 426 -734 938 -1621z m-972 526 c-14 -24 -232 -402 -485 -841 l-460
-797 311 2 311 3 173 300 c95 165 176 301 181 302 4 1 74 -115 155 -257 l149
-260 -179 -310 -178 -310 -918 0 c-505 0 -916 3 -914 8 2 4 289 501 637 1105
l632 1097 305 0 305 0 -25 -42z"/>
</g>
</svg>
